<?xml version="1.0" standalone="no"?><!DOCTYPE svg PUBLIC "-//W3C//DTD SVG 1.1//EN" "http://www.w3.org/Graphics/SVG/1.1/DTD/svg11.dtd"><svg xmlns:xlink="http://www.w3.org/1999/xlink" version="1.1" style="font-family:'lucida grande', 'lucida sans unicode', arial, helvetica, sans-serif;font-size:12px;" xmlns="http://www.w3.org/2000/svg" width="600" height="400"><desc>Created with Highcharts 4.2.7</desc><defs><clipPath id="highcharts-28"><rect x="0" y="0" width="600" height="400"></rect></clipPath></defs><rect x="10" y="49" width="580" height="299" fill="#ffffff"></rect><rect x="10" y="49" width="580" height="299" stroke="#026FC1" stroke-width="2" fill="none"></rect><g class="highcharts-series-group"><g class="highcharts-series highcharts-series-0" transform="translate(10,49) scale(1 1)"><path fill="rgb(55,155,25)" d="M 169.18972666288596 198.82102926851687 L 169.18972666288596 206.77598055686553 L 290 157.45495128834867 L 290 149.5 Z" transform="translate(0,0)" visibility="visible"></path><path fill="rgb(212,61,2)" d="M 169.18902916424148 198.8201750084157 L 169.18902916424148 206.77512629676437 L 290 157.45495128834867 L 290 149.5 Z" transform="translate(0,0)" visibility="visible"></path><path fill="rgb(212,61,2)" d="M 289.9443422378124 50.85861187560896 L 289.9443422378124 58.81356316395762 L 290 157.45495128834867 L 290 149.5 Z" transform="translate(0,0)" visibility="visible"></path><path fill="rgb(55,155,25)" d="M 289.9715875880845 50.85860607043601 L 289.9715875880845 58.81355735878467 L 290 157.45495128834867 L 290 149.5 Z" transform="translate(0,0)" visibility="visible"></path><path fill="rgb(212,61,2)" d="M 169.18902916424148 198.8201750084157 C 156.34869502129035 183.09381927872937 150.5 167.65916724379056 150.5 149.5 L 150.5 157.45495128834867 C 150.5 102.99064997099387 212.92019478019267 58.835293351272554 289.9443422378124 58.81356316395762 L 289.9443422378124 50.85861187560896 C 212.92019478019267 50.880342062923894 150.5 95.03569868264522 150.5 149.5 L 150.5 157.45495128834867 C 150.5 175.61411853213923 156.34869502129035 191.04877056707804 169.18902916424148 206.77512629676437 Z" transform="translate(0,0)" visibility="visible"></path><path fill="rgb(212,61,2)" d="M 290 149.5 C 290 149.5 290 149.5 290 149.5 C 290 149.5 290 149.5 290 149.5 L 290 157.45495128834867 C 290 157.45495128834867 290 157.45495128834867 290 157.45495128834867 C 290 157.45495128834867 290 157.45495128834867 290 157.45495128834867 Z" transform="translate(0,0)" visibility="visible"></path><path fill="rgb(55,155,25)" d="M 429.5 149.5 C 429.5 203.97813869930218 367.0437226013957 248.14139597552338 290 248.14139597552338 C 238.6377084717456 248.14139597552338 194.87104492395073 230.27381041269624 169.18972666288596 198.82102926851687 L 169.18972666288596 206.77598055686553 C 207.7118467099484 253.95532698811934 293.02879691475914 270.1199671129824 359.7504685017369 242.88071480202237 C 404.23141817018814 224.72128050981357 429.5 193.7735759252577 429.5 157.45495128834867 Z" transform="translate(0,0)" visibility="visible"></path><path fill="rgb(55,155,25)" d="M 290 149.5 C 290 149.5 290 149.5 290 149.5 C 290 149.5 290 149.5 290 149.5 C 290 149.5 290 149.5 290 149.5 L 290 157.45495128834867 C 290 157.45495128834867 290 157.45495128834867 290 157.45495128834867 C 290 157.45495128834867 290 157.45495128834867 290 157.45495128834867 C 290 157.45495128834867 290 157.45495128834867 290 157.45495128834867 Z" transform="translate(0,0)" visibility="visible"></path><g stroke="#FFFFFF" stroke-width="1" stroke-linejoin="round"><path fill="#50B432" d="M 289.9715875880845 50.85860607043601 C 367.01530859148653 50.847510333395775 429.4843053647697 95.0017718215147 429.49999710657653 149.4799093908647 C 429.5156888483834 203.9580469602147 367.0721334153175 248.13029819252375 290.0284124119155 248.141393929564 C 238.6561322760273 248.1487924988974 194.8760397940835 230.27992779948818 169.18972666288596 198.82102926851687 L 290 149.5 C 290 149.5 290 149.5 290 149.5 C 290 149.5 290 149.5 290 149.5 C 290 149.5 290 149.5 290 149.5 Z" transform="translate(0,0)" visibility="visible"></path></g><g stroke="#FFFFFF" stroke-width="1" stroke-linejoin="round"><path fill="#ED561B" d="M 169.18902916424148 198.8201750084157 C 130.667576335821 151.64055618699774 153.52868279964179 91.31252379643871 220.250739604484 64.07374328030491 C 242.47421784163618 55.00117455273336 264.2829726959174 50.865851506105486 289.9443422378124 50.85861187560896 L 290 149.5 C 290 149.5 290 149.5 290 149.5 C 290 149.5 290 149.5 290 149.5 Z" transform="translate(0,0)" visibility="visible"></path></g></g><g class="highcharts-markers highcharts-series-0" transform="translate(10,49) scale(1 1)"></g></g><text x="300" text-anchor="middle" class="highcharts-title" style="color:#000000;font-size:10px;font-family:'arial', sans-serif;fill:#000000;width:536px;" y="17"><tspan>Hasil Sensus Marhaenia 2023 - Kekristenan</tspan></text><text x="300" text-anchor="middle" class="highcharts-subtitle" style="color:#000000;font-size:10px;font-family:'arial', sans-serif;fill:#000000;width:536px;" y="34"><tspan>https://marhaenia.github.io/sensus/</tspan></text><g class="highcharts-data-labels highcharts-series-0" transform="translate(10,49) scale(1 1)" opacity="1"><path fill="none" d="M 451.82043287282374 213.8241932213702 C 446.82043287282374 213.8241932213702 429.8631027111869 209.82419322137022 420.33682326955807 204.32419322137022 L 410.8105438279292 198.82419322137022" stroke="#50B432" stroke-width="1"></path><path fill="none" d="M 128.18091205015403 85.17252799481017 C 133.18091205015403 85.17252799481017 150.136897288813 89.17252799481015 159.66317673044185 94.67252799481014 L 169.1894561720707 100.17252799481012" stroke="#ED561B" stroke-width="1"></path><g style="cursor:pointer;" transform="translate(457,204)"><text x="5" style="font-size:10px;font-weight:bold;font-family:'arial', sans-serif;color:#000;text-shadow:none;fill:#000;text-rendering:geometricprecision;" y="15"><tspan>Protestan: 4  - 66.7%</tspan></text></g><g style="cursor:pointer;" transform="translate(29,75)"><text x="5" style="font-size:10px;font-weight:bold;font-family:'arial', sans-serif;color:#000;text-shadow:none;fill:#000;text-rendering:geometricprecision;" y="15"><tspan>Katolik: 2  - 33.3%</tspan></text></g></g><g class="highcharts-legend" transform="translate(214,360)"><g><g><g class="highcharts-legend-item" transform="translate(8,3)"><text x="21" style="color:#333;font-size:9pt;font-weight:normal;cursor:pointer;font-family:'lucida grande','lucida sans unicode',arial,helvetica,sans-serif;text-transform:none;fill:#333;" text-anchor="start" y="15">Protestan</text><rect x="0" y="4" width="16" height="12" fill="#50B432"></rect></g><g class="highcharts-legend-item" transform="translate(103.5333366394043,3)"><text x="21" y="15" style="color:#333;font-size:9pt;font-weight:normal;cursor:pointer;font-family:'lucida grande','lucida sans unicode',arial,helvetica,sans-serif;text-transform:none;fill:#333;" text-anchor="start">Katolik</text><rect x="0" y="4" width="16" height="12" fill="#ED561B"></rect></g></g></g></g><g class="highcharts-tooltip" display="none" style="cursor:default;padding:0;pointer-events:none;white-space:nowrap;" transform="translate(0,0)"><path fill="none" d="M 3.5 0.5 L 13.5 0.5 C 16.5 0.5 16.5 0.5 16.5 3.5 L 16.5 13.5 C 16.5 16.5 16.5 16.5 13.5 16.5 L 3.5 16.5 C 0.5 16.5 0.5 16.5 0.5 13.5 L 0.5 3.5 C 0.5 0.5 0.5 0.5 3.5 0.5"  stroke="black" stroke-opacity="0.049999999999999996" stroke-width="5" transform="translate(1, 1)"></path><path fill="none" d="M 3.5 0.5 L 13.5 0.5 C 16.5 0.5 16.5 0.5 16.5 3.5 L 16.5 13.5 C 16.5 16.5 16.5 16.5 13.5 16.5 L 3.5 16.5 C 0.5 16.5 0.5 16.5 0.5 13.5 L 0.5 3.5 C 0.5 0.5 0.5 0.5 3.5 0.5"  stroke="black" stroke-opacity="0.09999999999999999" stroke-width="3" transform="translate(1, 1)"></path><path fill="none" d="M 3.5 0.5 L 13.5 0.5 C 16.5 0.5 16.5 0.5 16.5 3.5 L 16.5 13.5 C 16.5 16.5 16.5 16.5 13.5 16.5 L 3.5 16.5 C 0.5 16.5 0.5 16.5 0.5 13.5 L 0.5 3.5 C 0.5 0.5 0.5 0.5 3.5 0.5"  stroke="black" stroke-opacity="0.15" stroke-width="1" transform="translate(1, 1)"></path><path fill="rgb(249, 249, 249)" fill-opacity=" .85" d="M 3.5 0.5 L 13.5 0.5 C 16.5 0.5 16.5 0.5 16.5 3.5 L 16.5 13.5 C 16.5 16.5 16.5 16.5 13.5 16.5 L 3.5 16.5 C 0.5 16.5 0.5 16.5 0.5 13.5 L 0.5 3.5 C 0.5 0.5 0.5 0.5 3.5 0.5"></path><text x="8" style="font-size:12px;color:#000000;fill:#000000;" y="20"></text></g><text x="590" text-anchor="end" style="cursor:pointer;color:#909090;font-size:9px;fill:#909090;" y="395">meta-chart.com</text></svg>