<?xml version="1.0" standalone="no"?><!DOCTYPE svg PUBLIC "-//W3C//DTD SVG 1.1//EN" "http://www.w3.org/Graphics/SVG/1.1/DTD/svg11.dtd"><svg xmlns:xlink="http://www.w3.org/1999/xlink" version="1.1" style="font-family:'lucida grande', 'lucida sans unicode', arial, helvetica, sans-serif;font-size:12px;" xmlns="http://www.w3.org/2000/svg" width="600" height="400"><desc>Created with Highcharts 4.2.7</desc><defs><clipPath id="highcharts-10"><rect x="0" y="0" width="600" height="400"></rect></clipPath></defs><rect x="10" y="49" width="580" height="299" fill="#ffffff"></rect><rect x="10" y="49" width="580" height="299" stroke="#026FC1" stroke-width="2" fill="none"></rect><g class="highcharts-series-group"><g class="highcharts-series highcharts-series-0" transform="translate(10,49) scale(1 1)"><path fill="rgb(55,155,25)" d="M 160.4307335080429 186.05171118248916 L 160.4307335080429 194.00666247083782 L 290 157.45495128834867 L 290 149.5 Z" transform="translate(0,0)" visibility="visible"></path><path fill="rgb(196,198,0)" d="M 155.56912807793327 123.15051542939698 L 155.56912807793327 131.10546671774563 L 290 157.45495128834867 L 290 149.5 Z" transform="translate(0,0)" visibility="visible"></path><path fill="rgb(196,198,0)" d="M 289.9443422378124 50.85861187560896 L 289.9443422378124 58.81356316395762 L 290 157.45495128834867 L 290 149.5 Z" transform="translate(0,0)" visibility="visible"></path><path fill="rgb(212,61,2)" d="M 160.43021659526454 186.05079498759187 L 160.43021659526454 194.00574627594054 L 290 157.45495128834867 L 290 149.5 Z" transform="translate(0,0)" visibility="visible"></path><path fill="rgb(196,198,0)" d="M 155.56912807793327 123.15051542939698 C 172.60131081302592 79.70277417132051 226.18301350001173 50.8766003332895 289.9443422378124 50.85861187560896 L 289.9443422378124 58.81356316395762 C 226.18301350001173 58.83155162163816 172.60131081302592 87.65772545966917 155.56912807793327 131.10546671774563 Z" transform="translate(0,0)" visibility="visible"></path><path fill="rgb(196,198,0)" d="M 290 149.5 C 290 149.5 290 149.5 290 149.5 L 290 157.45495128834867 C 290 157.45495128834867 290 157.45495128834867 290 157.45495128834867 Z" transform="translate(0,0)" visibility="visible"></path><path fill="rgb(212,61,2)" d="M 155.56875544667042 123.15146600052582 L 155.56875544667042 131.10641728887447 L 290 157.45495128834867 L 290 149.5 Z" transform="translate(0,0)" visibility="visible"></path><path fill="rgb(55,155,25)" d="M 289.9715875880845 50.85860607043601 L 289.9715875880845 58.81355735878467 L 290 157.45495128834867 L 290 149.5 Z" transform="translate(0,0)" visibility="visible"></path><path fill="rgb(212,61,2)" d="M 160.43021659526454 186.05079498759187 C 153.53142861179285 173.82295609821796 150.5 162.66497936667324 150.5 149.5 L 150.5 157.45495128834867 C 150.5 148.07706830608095 152.02619675704503 140.14355335039232 155.56875544667042 131.10641728887447 L 155.56875544667042 123.15146600052582 C 152.02619675704503 132.18860206204366 150.5 140.12211701773228 150.5 149.5 L 150.5 157.45495128834867 C 150.5 170.6199306550219 153.53142861179285 181.77790738656662 160.43021659526454 194.00574627594054 Z" transform="translate(0,0)" visibility="visible"></path><path fill="rgb(212,61,2)" d="M 290 149.5 C 290 149.5 290 149.5 290 149.5 L 290 157.45495128834867 C 290 157.45495128834867 290 157.45495128834867 290 157.45495128834867 Z" transform="translate(0,0)" visibility="visible"></path><path fill="rgb(55,155,25)" d="M 429.5 149.5 C 429.5 203.97813869930218 367.0437226013957 248.14139597552338 290 248.14139597552338 C 231.57486024288698 248.14139597552338 182.0802530944087 224.42354497576616 160.4307335080429 186.05171118248916 L 160.4307335080429 194.00666247083782 C 188.97939575172 244.60660850034094 270.13279575195054 269.2612109244869 341.69192568222047 249.07425825817845 C 395.9578934457991 233.76573614922822 429.5 198.76776380237501 429.5 157.45495128834867 Z" transform="translate(0,0)" visibility="visible"></path><path fill="rgb(55,155,25)" d="M 290 149.5 C 290 149.5 290 149.5 290 149.5 C 290 149.5 290 149.5 290 149.5 C 290 149.5 290 149.5 290 149.5 L 290 157.45495128834867 C 290 157.45495128834867 290 157.45495128834867 290 157.45495128834867 C 290 157.45495128834867 290 157.45495128834867 290 157.45495128834867 C 290 157.45495128834867 290 157.45495128834867 290 157.45495128834867 Z" transform="translate(0,0)" visibility="visible"></path><g stroke="#FFFFFF" stroke-width="1" stroke-linejoin="round"><path fill="#50B432" d="M 289.9715875880845 50.85860607043601 C 367.01530859148653 50.847510333395775 429.4843053647697 95.0017718215147 429.49999710657653 149.4799093908647 C 429.5156888483834 203.9580469602147 367.0721334153175 248.13029819252375 290.0284124119155 248.141393929564 C 231.59328419366193 248.1498096811422 182.0839547821714 224.4301058856754 160.4307335080429 186.05171118248916 L 290 149.5 C 290 149.5 290 149.5 290 149.5 C 290 149.5 290 149.5 290 149.5 C 290 149.5 290 149.5 290 149.5 Z" transform="translate(0,0)" visibility="visible"></path></g><g stroke="#FFFFFF" stroke-width="1" stroke-linejoin="round"><path fill="#ED561B" d="M 160.43021659526454 186.05079498759187 C 148.6171765931191 165.11263160497506 147.0530368080104 144.8752297378916 155.56875544667042 123.15146600052582 L 290 149.5 C 290 149.5 290 149.5 290 149.5 Z" transform="translate(0,0)" visibility="visible"></path></g><g stroke="#FFFFFF" stroke-width="1" stroke-linejoin="round"><path fill="#DDDF00" d="M 155.56912807793327 123.15051542939698 C 172.60131081302592 79.70277417132051 226.18301350001173 50.8766003332895 289.9443422378124 50.85861187560896 L 290 149.5 C 290 149.5 290 149.5 290 149.5 Z" transform="translate(0,0)" visibility="visible"></path></g></g><g class="highcharts-markers highcharts-series-0" transform="translate(10,49) scale(1 1)"></g></g><text x="300" text-anchor="middle" class="highcharts-title" style="color:#000000;font-size:10px;font-family:'arial', sans-serif;fill:#000000;width:536px;" y="17"><tspan>Hasil Sensus Marhaenia 2023 - Suku</tspan></text><text x="300" text-anchor="middle" class="highcharts-subtitle" style="color:#000000;font-size:10px;font-family:'arial', sans-serif;fill:#000000;width:536px;" y="34"><tspan>https://marhaenia.github.io/sensus/</tspan></text><g class="highcharts-data-labels highcharts-series-0" transform="translate(10,49) scale(1 1)" opacity="1"><path fill="none" d="M 448.3526068710163 221.7026866942188 C 443.3526068710163 221.7026866942188 423.67177320233776 217.21319017131975 414.567194222612 211.04013245233355 L 405.4626152428862 204.86707473334735" stroke="#50B432" stroke-width="1"></path><path fill="none" d="M 115.64242510656123 156.44707321202822 C 120.64242510656123 156.44707321202822 128.7368536630435 156.01396194334484 139.72072121540586 155.41843394890526 L 150.70458876776823 154.82290595446568" stroke="#ED561B" stroke-width="1"></path><path fill="none" d="M 149.9433951264432 47.07947725173457 C 154.9433951264432 47.07947725173457 192.264364246207 53.448221777379715 198.9212806133384 62.20524550014181 L 205.5781969804698 70.9622692229039" stroke="#DDDF00" stroke-width="1"></path><g style="cursor:pointer;" transform="translate(453,212)"><text x="5" style="font-size:10px;font-weight:bold;font-family:'arial', sans-serif;color:#000;text-shadow:none;fill:#000;text-rendering:geometricprecision;" y="15"><tspan>Jawa: 20  - 69.0%</tspan></text></g><g style="cursor:pointer;" transform="translate(19,146)"><text x="5" style="font-size:10px;font-weight:bold;font-family:'arial', sans-serif;color:#000;text-shadow:none;fill:#000;text-rendering:geometricprecision;" y="15"><tspan>Sunda: 3  - 10.3%</tspan></text></g><g style="cursor:pointer;" transform="translate(38,37)"><text x="5" style="font-size:10px;font-weight:bold;font-family:'arial', sans-serif;color:#000;text-shadow:none;fill:#000;text-rendering:geometricprecision;" y="15"><tspan>Tionghoa: 6  - 20.7%</tspan></text></g></g><g class="highcharts-legend" transform="translate(181,360)"><g><g><g class="highcharts-legend-item" transform="translate(8,3)"><text x="21" style="color:#333;font-size:9pt;font-weight:normal;cursor:pointer;font-family:'lucida grande','lucida sans unicode',arial,helvetica,sans-serif;text-transform:none;fill:#333;" text-anchor="start" y="15">Jawa</text><rect x="0" y="4" width="16" height="12" fill="#50B432"></rect></g><g class="highcharts-legend-item" transform="translate(79.62500190734863,3)"><text x="21" y="15" style="color:#333;font-size:9pt;font-weight:normal;cursor:pointer;font-family:'lucida grande','lucida sans unicode',arial,helvetica,sans-serif;text-transform:none;fill:#333;" text-anchor="start">Sunda</text><rect x="0" y="4" width="16" height="12" fill="#ED561B"></rect></g><g class="highcharts-legend-item" transform="translate(157.05833625793457,3)"><text x="21" y="15" style="color:#333;font-size:9pt;font-weight:normal;cursor:pointer;font-family:'lucida grande','lucida sans unicode',arial,helvetica,sans-serif;text-transform:none;fill:#333;" text-anchor="start">Tionghoa</text><rect x="0" y="4" width="16" height="12" fill="#DDDF00"></rect></g></g></g></g><g class="highcharts-tooltip" display="none" style="cursor:default;padding:0;pointer-events:none;white-space:nowrap;" transform="translate(0,0)"><path fill="none" d="M 3.5 0.5 L 13.5 0.5 C 16.5 0.5 16.5 0.5 16.5 3.5 L 16.5 13.5 C 16.5 16.5 16.5 16.5 13.5 16.5 L 3.5 16.5 C 0.5 16.5 0.5 16.5 0.5 13.5 L 0.5 3.5 C 0.5 0.5 0.5 0.5 3.5 0.5"  stroke="black" stroke-opacity="0.049999999999999996" stroke-width="5" transform="translate(1, 1)"></path><path fill="none" d="M 3.5 0.5 L 13.5 0.5 C 16.5 0.5 16.5 0.5 16.5 3.5 L 16.5 13.5 C 16.5 16.5 16.5 16.5 13.5 16.5 L 3.5 16.5 C 0.5 16.5 0.5 16.5 0.5 13.5 L 0.5 3.5 C 0.5 0.5 0.5 0.5 3.5 0.5"  stroke="black" stroke-opacity="0.09999999999999999" stroke-width="3" transform="translate(1, 1)"></path><path fill="none" d="M 3.5 0.5 L 13.5 0.5 C 16.5 0.5 16.5 0.5 16.5 3.5 L 16.5 13.5 C 16.5 16.5 16.5 16.5 13.5 16.5 L 3.5 16.5 C 0.5 16.5 0.5 16.5 0.5 13.5 L 0.5 3.5 C 0.5 0.5 0.5 0.5 3.5 0.5"  stroke="black" stroke-opacity="0.15" stroke-width="1" transform="translate(1, 1)"></path><path fill="rgb(249, 249, 249)" fill-opacity=" .85" d="M 3.5 0.5 L 13.5 0.5 C 16.5 0.5 16.5 0.5 16.5 3.5 L 16.5 13.5 C 16.5 16.5 16.5 16.5 13.5 16.5 L 3.5 16.5 C 0.5 16.5 0.5 16.5 0.5 13.5 L 0.5 3.5 C 0.5 0.5 0.5 0.5 3.5 0.5"></path><text x="8" style="font-size:12px;color:#000000;fill:#000000;" y="20"></text></g><text x="590" text-anchor="end" style="cursor:pointer;color:#909090;font-size:9px;fill:#909090;" y="395">meta-chart.com</text></svg>