<?xml version="1.0" encoding="UTF-8" standalone="no"?>
<svg
   xmlns:dc="http://purl.org/dc/elements/1.1/"
   xmlns:cc="http://creativecommons.org/ns#"
   xmlns:rdf="http://www.w3.org/1999/02/22-rdf-syntax-ns#"
   xmlns:svg="http://www.w3.org/2000/svg"
   xmlns="http://www.w3.org/2000/svg"
   xmlns:sodipodi="http://sodipodi.sourceforge.net/DTD/sodipodi-0.dtd"
   xmlns:inkscape="http://www.inkscape.org/namespaces/inkscape"
   version="1.1"
   style="font-family:'lucida grande', 'lucida sans unicode', arial, helvetica, sans-serif;font-size:12px;"
   width="600"
   height="400"
   id="svg794"
   sodipodi:docname="islam.svg"
   inkscape:version="1.0.2 (e86c870879, 2021-01-15)">
  <metadata
     id="metadata798">
    <rdf:RDF>
      <cc:Work
         rdf:about="">
        <dc:format>image/svg+xml</dc:format>
        <dc:type
           rdf:resource="http://purl.org/dc/dcmitype/StillImage" />
      </cc:Work>
    </rdf:RDF>
  </metadata>
  <sodipodi:namedview
     pagecolor="#ffffff"
     bordercolor="#666666"
     borderopacity="1"
     objecttolerance="10"
     gridtolerance="10"
     guidetolerance="10"
     inkscape:pageopacity="0"
     inkscape:pageshadow="2"
     inkscape:window-width="1328"
     inkscape:window-height="688"
     id="namedview796"
     showgrid="false"
     inkscape:zoom="1.1633114"
     inkscape:cx="293.23467"
     inkscape:cy="200"
     inkscape:window-x="19"
     inkscape:window-y="13"
     inkscape:window-maximized="0"
     inkscape:current-layer="svg794" />
  <desc
     id="desc695">Created with Highcharts 4.2.7</desc>
  <defs
     id="defs700">
    <clipPath
       id="highcharts-22">
      <rect
         x="0"
         y="0"
         width="600"
         height="400"
         id="rect697" />
    </clipPath>
  </defs>
  <rect
     x="10"
     y="49"
     width="580"
     height="299"
     fill="#ffffff"
     id="rect702" />
  <rect
     x="10"
     y="49"
     width="580"
     height="299"
     stroke="#026FC1"
     stroke-width="2"
     fill="none"
     id="rect704" />
  <g
     class="highcharts-series-group"
     id="g734">
    <g
       class="highcharts-series highcharts-series-0"
       transform="translate(10,49) scale(1 1)"
       id="g730">
      <path
         fill="rgb(55,155,25)"
         d="M 207.99487819246804 69.70209903345877 L 207.99487819246804 77.65705032180742 L 290 157.45495128834867 L 290 149.5 Z"
         transform="translate(0,0)"
         visibility="visible"
         id="path706" />
      <path
         fill="rgb(212,61,2)"
         d="M 207.9960067093062 69.70151917367147 L 207.9960067093062 77.65647046202012 L 290 157.45495128834867 L 290 149.5 Z"
         transform="translate(0,0)"
         visibility="visible"
         id="path708" />
      <path
         fill="rgb(212,61,2)"
         d="M 289.9443422378124 50.85861187560896 L 289.9443422378124 58.81356316395762 L 290 157.45495128834867 L 290 149.5 Z"
         transform="translate(0,0)"
         visibility="visible"
         id="path710" />
      <path
         fill="rgb(55,155,25)"
         d="M 289.9715875880845 50.85860607043601 L 289.9715875880845 58.81355735878467 L 290 157.45495128834867 L 290 149.5 Z"
         transform="translate(0,0)"
         visibility="visible"
         id="path712" />
      <path
         fill="rgb(212,61,2)"
         d="M 207.9960067093062 69.70151917367147 C 232.91356734278182 56.89839652115466 259.1429692779808 50.86730161286756 289.9443422378124 50.85861187560896 L 289.9443422378124 58.81356316395762 C 259.1429692779808 58.82225290121622 232.91356734278182 64.85334780950332 207.9960067093062 77.65647046202012 Z"
         transform="translate(0,0)"
         visibility="visible"
         id="path714" />
      <path
         fill="rgb(212,61,2)"
         d="M 290 149.5 C 290 149.5 290 149.5 290 149.5 L 290 157.45495128834867 C 290 157.45495128834867 290 157.45495128834867 290 157.45495128834867 Z"
         transform="translate(0,0)"
         visibility="visible"
         id="path716" />
      <path
         fill="rgb(55,155,25)"
         d="M 429.5 149.5 C 429.5 203.97813869930218 367.0437226013957 248.14139597552338 290 248.14139597552338 C 212.9562773986043 248.14139597552338 150.5 203.97813869930218 150.5 149.5 L 150.5 157.45495128834867 C 150.5 124.7708582128667 170.6024477635286 96.87040540298024 207.99487819246804 77.65705032180742 L 207.99487819246804 69.70209903345877 C 170.6024477635286 88.91545411463159 150.5 116.81590692451805 150.5 149.5 L 150.5 157.45495128834867 C 150.5 211.93308998765085 212.9562773986043 256.096347263872 290 256.096347263872 C 367.0437226013957 256.096347263872 429.5 211.93308998765085 429.5 157.45495128834867 Z"
         transform="translate(0,0)"
         visibility="visible"
         id="path718" />
      <path
         fill="rgb(55,155,25)"
         d="M 290 149.5 C 290 149.5 290 149.5 290 149.5 C 290 149.5 290 149.5 290 149.5 C 290 149.5 290 149.5 290 149.5 C 290 149.5 290 149.5 290 149.5 L 290 157.45495128834867 C 290 157.45495128834867 290 157.45495128834867 290 157.45495128834867 C 290 157.45495128834867 290 157.45495128834867 290 157.45495128834867 C 290 157.45495128834867 290 157.45495128834867 290 157.45495128834867 C 290 157.45495128834867 290 157.45495128834867 290 157.45495128834867 Z"
         transform="translate(0,0)"
         visibility="visible"
         id="path720" />
      <g
         stroke="#FFFFFF"
         stroke-width="1"
         stroke-linejoin="round"
         id="g724">
        <path
           fill="#50B432"
           d="M 289.9715875880845 50.85860607043601 C 367.01530859148653 50.847510333395775 429.4843053647697 95.0017718215147 429.49999710657653 149.4799093908647 C 429.5156888483834 203.9580469602147 367.0721334153175 248.13029819252375 290.0284124119155 248.141393929564 C 212.98469140851347 248.15248966660425 150.51569463523032 203.99822817848533 150.5000028934235 149.5200906091353 C 150.49058661737655 116.82893444607566 170.594366420578 88.91960655163184 207.99487819246804 69.70209903345877 L 290 149.5 C 290 149.5 290 149.5 290 149.5 C 290 149.5 290 149.5 290 149.5 C 290 149.5 290 149.5 290 149.5 C 290 149.5 290 149.5 290 149.5 Z"
           transform="translate(0,0)"
           visibility="visible"
           id="path722" />
      </g>
      <g
         stroke="#FFFFFF"
         stroke-width="1"
         stroke-linejoin="round"
         id="g728">
        <path
           fill="#ED561B"
           d="M 207.9960067093062 69.70151917367147 C 232.91356734278182 56.89839652115466 259.1429692779808 50.86730161286756 289.9443422378124 50.85861187560896 L 290 149.5 C 290 149.5 290 149.5 290 149.5 Z"
           transform="translate(0,0)"
           visibility="visible"
           id="path726" />
      </g>
    </g>
    <g
       class="highcharts-markers highcharts-series-0"
       transform="translate(10,49) scale(1 1)"
       id="g732" />
  </g>
  <text
     x="300"
     text-anchor="middle"
     class="highcharts-title"
     style="color:#000000;font-size:10px;font-family:'arial', sans-serif;fill:#000000;width:536px;"
     y="17"
     id="text738"><tspan
       id="tspan736">Hasil Sensus Marhaenia 2023 - Islam</tspan></text>
  <text
     x="300"
     text-anchor="middle"
     class="highcharts-subtitle"
     style="color:#000000;font-size:10px;font-family:'arial', sans-serif;fill:#000000;width:536px;"
     y="34"
     id="text742"><tspan
       id="tspan740">https://marhaenia.github.io/sensus/</tspan></text>
  <g
     class="highcharts-data-labels highcharts-series-0"
     transform="translate(10,49) scale(1 1)"
     opacity="1"
     id="g760">
    <path
       fill="none"
       d="M 412.3092887318792 271.84696881092157 C 407.3092887318792 271.84696881092157 339.90624459155407 264.23851668056034 336.5070576534296 253.77689500131365 L 333.1078707153052 243.315273322067"
       stroke="#50B432"
       stroke-width="1"
       id="path744" />
    <path
       fill="none"
       d="M 167.69193205072634 27.15186068432182 C 172.69193205072634 27.15186068432182 240.093755408446 34.76031281468305 243.4929423465704 45.22193449392974 L 246.89212928469482 55.68355617317643"
       stroke="#ED561B"
       stroke-width="1"
       id="path746" />
    <g
       style="cursor:pointer;"
       transform="translate(417,262)"
       id="g752">
      <text
         x="5"
         style="font-size:10px;font-weight:bold;font-family:'arial', sans-serif;color:#000;text-shadow:none;fill:#000;text-rendering:geometricprecision;"
         y="15"
         id="text750"><tspan
           id="tspan748">Sunni: 27  - 90.0%</tspan></text>
    </g>
    <g
       style="cursor:pointer;"
       transform="translate(76,17)"
       id="g758">
      <text
         x="5"
         style="font-size:10px;font-weight:bold;font-family:'arial', sans-serif;color:#000;text-shadow:none;fill:#000;text-rendering:geometricprecision;"
         y="15"
         id="text756"><tspan
           id="tspan754">Syiah: 3  - 10.0%</tspan></text>
    </g>
  </g>
  <g
     class="highcharts-legend"
     transform="translate(230,360)"
     id="g778">
    <g
       id="g776">
      <g
         id="g774">
        <g
           class="highcharts-legend-item"
           transform="translate(8,3)"
           id="g766">
          <text
             x="21"
             style="color:#333;font-size:9pt;font-weight:normal;cursor:pointer;font-family:'lucida grande','lucida sans unicode',arial,helvetica,sans-serif;text-transform:none;fill:#333;"
             text-anchor="start"
             y="15"
             id="text762">Sunni</text>
          <rect
             x="0"
             y="4"
             width="16"
             height="12"
             fill="#50B432"
             id="rect764" />
        </g>
        <g
           class="highcharts-legend-item"
           transform="translate(80.87500190734863,3)"
           id="g772">
          <text
             x="21"
             y="15"
             style="color:#333;font-size:9pt;font-weight:normal;cursor:pointer;font-family:'lucida grande','lucida sans unicode',arial,helvetica,sans-serif;text-transform:none;fill:#333;"
             text-anchor="start"
             id="text768">Syiah</text>
          <rect
             x="0"
             y="4"
             width="16"
             height="12"
             fill="#ED561B"
             id="rect770" />
        </g>
      </g>
    </g>
  </g>
  <g
     class="highcharts-tooltip"
     display="none"
     style="cursor:default;padding:0;pointer-events:none;white-space:nowrap;"
     transform="translate(0,0)"
     id="g790">
    <path
       fill="none"
       d="M 3.5 0.5 L 13.5 0.5 C 16.5 0.5 16.5 0.5 16.5 3.5 L 16.5 13.5 C 16.5 16.5 16.5 16.5 13.5 16.5 L 3.5 16.5 C 0.5 16.5 0.5 16.5 0.5 13.5 L 0.5 3.5 C 0.5 0.5 0.5 0.5 3.5 0.5"
       stroke="black"
       stroke-opacity="0.049999999999999996"
       stroke-width="5"
       transform="translate(1, 1)"
       id="path780" />
    <path
       fill="none"
       d="M 3.5 0.5 L 13.5 0.5 C 16.5 0.5 16.5 0.5 16.5 3.5 L 16.5 13.5 C 16.5 16.5 16.5 16.5 13.5 16.5 L 3.5 16.5 C 0.5 16.5 0.5 16.5 0.5 13.5 L 0.5 3.5 C 0.5 0.5 0.5 0.5 3.5 0.5"
       stroke="black"
       stroke-opacity="0.09999999999999999"
       stroke-width="3"
       transform="translate(1, 1)"
       id="path782" />
    <path
       fill="none"
       d="M 3.5 0.5 L 13.5 0.5 C 16.5 0.5 16.5 0.5 16.5 3.5 L 16.5 13.5 C 16.5 16.5 16.5 16.5 13.5 16.5 L 3.5 16.5 C 0.5 16.5 0.5 16.5 0.5 13.5 L 0.5 3.5 C 0.5 0.5 0.5 0.5 3.5 0.5"
       stroke="black"
       stroke-opacity="0.15"
       stroke-width="1"
       transform="translate(1, 1)"
       id="path784" />
    <path
       fill="rgb(249, 249, 249)"
       fill-opacity=" .85"
       d="M 3.5 0.5 L 13.5 0.5 C 16.5 0.5 16.5 0.5 16.5 3.5 L 16.5 13.5 C 16.5 16.5 16.5 16.5 13.5 16.5 L 3.5 16.5 C 0.5 16.5 0.5 16.5 0.5 13.5 L 0.5 3.5 C 0.5 0.5 0.5 0.5 3.5 0.5"
       id="path786" />
    <text
       x="8"
       style="font-size:12px;color:#000000;fill:#000000;"
       y="20"
       id="text788" />
  </g>
</svg>
