<?xml version="1.0" encoding="UTF-8" standalone="no"?>
<svg
   xmlns:dc="http://purl.org/dc/elements/1.1/"
   xmlns:cc="http://creativecommons.org/ns#"
   xmlns:rdf="http://www.w3.org/1999/02/22-rdf-syntax-ns#"
   xmlns:svg="http://www.w3.org/2000/svg"
   xmlns="http://www.w3.org/2000/svg"
   xmlns:sodipodi="http://sodipodi.sourceforge.net/DTD/sodipodi-0.dtd"
   xmlns:inkscape="http://www.inkscape.org/namespaces/inkscape"
   version="1.1"
   style="font-family:'lucida grande', 'lucida sans unicode', arial, helvetica, sans-serif;font-size:12px;"
   width="600"
   height="400"
   id="svg302"
   sodipodi:docname="suku.svg"
   inkscape:version="1.0.2 (e86c870879, 2021-01-15)">
  <metadata
     id="metadata306">
    <rdf:RDF>
      <cc:Work
         rdf:about="">
        <dc:format>image/svg+xml</dc:format>
        <dc:type
           rdf:resource="http://purl.org/dc/dcmitype/StillImage" />
      </cc:Work>
    </rdf:RDF>
  </metadata>
  <sodipodi:namedview
     pagecolor="#ffffff"
     bordercolor="#666666"
     borderopacity="1"
     objecttolerance="10"
     gridtolerance="10"
     guidetolerance="10"
     inkscape:pageopacity="0"
     inkscape:pageshadow="2"
     inkscape:window-width="1366"
     inkscape:window-height="688"
     id="namedview304"
     showgrid="false"
     inkscape:zoom="1.1625"
     inkscape:cx="300"
     inkscape:cy="200"
     inkscape:window-x="0"
     inkscape:window-y="0"
     inkscape:window-maximized="1"
     inkscape:current-layer="svg302" />
  <desc
     id="desc177">Created with Highcharts 4.2.7</desc>
  <defs
     id="defs182">
    <clipPath
       id="highcharts-10">
      <rect
         x="0"
         y="0"
         width="600"
         height="400"
         id="rect179" />
    </clipPath>
  </defs>
  <rect
     x="10"
     y="49"
     width="580"
     height="299"
     fill="#ffffff"
     id="rect184" />
  <rect
     x="10"
     y="49"
     width="580"
     height="299"
     stroke="#026FC1"
     stroke-width="2"
     fill="none"
     id="rect186" />
  <g
     class="highcharts-series-group"
     id="g228">
    <g
       class="highcharts-series highcharts-series-0"
       transform="translate(10,49) scale(1 1)"
       id="g224">
      <path
         fill="rgb(55,155,25)"
         d="M 160.4307335080429 186.05171118248916 L 160.4307335080429 194.00666247083782 L 290 157.45495128834867 L 290 149.5 Z"
         transform="translate(0,0)"
         visibility="visible"
         id="path188" />
      <path
         fill="rgb(196,198,0)"
         d="M 155.56912807793327 123.15051542939698 L 155.56912807793327 131.10546671774563 L 290 157.45495128834867 L 290 149.5 Z"
         transform="translate(0,0)"
         visibility="visible"
         id="path190" />
      <path
         fill="rgb(196,198,0)"
         d="M 289.9443422378124 50.85861187560896 L 289.9443422378124 58.81356316395762 L 290 157.45495128834867 L 290 149.5 Z"
         transform="translate(0,0)"
         visibility="visible"
         id="path192" />
      <path
         fill="rgb(212,61,2)"
         d="M 160.43021659526454 186.05079498759187 L 160.43021659526454 194.00574627594054 L 290 157.45495128834867 L 290 149.5 Z"
         transform="translate(0,0)"
         visibility="visible"
         id="path194" />
      <path
         fill="rgb(196,198,0)"
         d="M 155.56912807793327 123.15051542939698 C 172.60131081302592 79.70277417132051 226.18301350001173 50.8766003332895 289.9443422378124 50.85861187560896 L 289.9443422378124 58.81356316395762 C 226.18301350001173 58.83155162163816 172.60131081302592 87.65772545966917 155.56912807793327 131.10546671774563 Z"
         transform="translate(0,0)"
         visibility="visible"
         id="path196" />
      <path
         fill="rgb(196,198,0)"
         d="M 290 149.5 C 290 149.5 290 149.5 290 149.5 L 290 157.45495128834867 C 290 157.45495128834867 290 157.45495128834867 290 157.45495128834867 Z"
         transform="translate(0,0)"
         visibility="visible"
         id="path198" />
      <path
         fill="rgb(212,61,2)"
         d="M 155.56875544667042 123.15146600052582 L 155.56875544667042 131.10641728887447 L 290 157.45495128834867 L 290 149.5 Z"
         transform="translate(0,0)"
         visibility="visible"
         id="path200" />
      <path
         fill="rgb(55,155,25)"
         d="M 289.9715875880845 50.85860607043601 L 289.9715875880845 58.81355735878467 L 290 157.45495128834867 L 290 149.5 Z"
         transform="translate(0,0)"
         visibility="visible"
         id="path202" />
      <path
         fill="rgb(212,61,2)"
         d="M 160.43021659526454 186.05079498759187 C 153.53142861179285 173.82295609821796 150.5 162.66497936667324 150.5 149.5 L 150.5 157.45495128834867 C 150.5 148.07706830608095 152.02619675704503 140.14355335039232 155.56875544667042 131.10641728887447 L 155.56875544667042 123.15146600052582 C 152.02619675704503 132.18860206204366 150.5 140.12211701773228 150.5 149.5 L 150.5 157.45495128834867 C 150.5 170.6199306550219 153.53142861179285 181.77790738656662 160.43021659526454 194.00574627594054 Z"
         transform="translate(0,0)"
         visibility="visible"
         id="path204" />
      <path
         fill="rgb(212,61,2)"
         d="M 290 149.5 C 290 149.5 290 149.5 290 149.5 L 290 157.45495128834867 C 290 157.45495128834867 290 157.45495128834867 290 157.45495128834867 Z"
         transform="translate(0,0)"
         visibility="visible"
         id="path206" />
      <path
         fill="rgb(55,155,25)"
         d="M 429.5 149.5 C 429.5 203.97813869930218 367.0437226013957 248.14139597552338 290 248.14139597552338 C 231.57486024288698 248.14139597552338 182.0802530944087 224.42354497576616 160.4307335080429 186.05171118248916 L 160.4307335080429 194.00666247083782 C 188.97939575172 244.60660850034094 270.13279575195054 269.2612109244869 341.69192568222047 249.07425825817845 C 395.9578934457991 233.76573614922822 429.5 198.76776380237501 429.5 157.45495128834867 Z"
         transform="translate(0,0)"
         visibility="visible"
         id="path208" />
      <path
         fill="rgb(55,155,25)"
         d="M 290 149.5 C 290 149.5 290 149.5 290 149.5 C 290 149.5 290 149.5 290 149.5 C 290 149.5 290 149.5 290 149.5 L 290 157.45495128834867 C 290 157.45495128834867 290 157.45495128834867 290 157.45495128834867 C 290 157.45495128834867 290 157.45495128834867 290 157.45495128834867 C 290 157.45495128834867 290 157.45495128834867 290 157.45495128834867 Z"
         transform="translate(0,0)"
         visibility="visible"
         id="path210" />
      <g
         stroke="#FFFFFF"
         stroke-width="1"
         stroke-linejoin="round"
         id="g214">
        <path
           fill="#50B432"
           d="M 289.9715875880845 50.85860607043601 C 367.01530859148653 50.847510333395775 429.4843053647697 95.0017718215147 429.49999710657653 149.4799093908647 C 429.5156888483834 203.9580469602147 367.0721334153175 248.13029819252375 290.0284124119155 248.141393929564 C 231.59328419366193 248.1498096811422 182.0839547821714 224.4301058856754 160.4307335080429 186.05171118248916 L 290 149.5 C 290 149.5 290 149.5 290 149.5 C 290 149.5 290 149.5 290 149.5 C 290 149.5 290 149.5 290 149.5 Z"
           transform="translate(0,0)"
           visibility="visible"
           id="path212" />
      </g>
      <g
         stroke="#FFFFFF"
         stroke-width="1"
         stroke-linejoin="round"
         id="g218">
        <path
           fill="#ED561B"
           d="M 160.43021659526454 186.05079498759187 C 148.6171765931191 165.11263160497506 147.0530368080104 144.8752297378916 155.56875544667042 123.15146600052582 L 290 149.5 C 290 149.5 290 149.5 290 149.5 Z"
           transform="translate(0,0)"
           visibility="visible"
           id="path216" />
      </g>
      <g
         stroke="#FFFFFF"
         stroke-width="1"
         stroke-linejoin="round"
         id="g222">
        <path
           fill="#DDDF00"
           d="M 155.56912807793327 123.15051542939698 C 172.60131081302592 79.70277417132051 226.18301350001173 50.8766003332895 289.9443422378124 50.85861187560896 L 290 149.5 C 290 149.5 290 149.5 290 149.5 Z"
           transform="translate(0,0)"
           visibility="visible"
           id="path220" />
      </g>
    </g>
    <g
       class="highcharts-markers highcharts-series-0"
       transform="translate(10,49) scale(1 1)"
       id="g226" />
  </g>
  <text
     x="300"
     text-anchor="middle"
     class="highcharts-title"
     style="color:#000000;font-size:10px;font-family:'arial', sans-serif;fill:#000000;width:536px;"
     y="17"
     id="text232"><tspan
       id="tspan230">Hasil Sensus Marhaenia 2023 - Suku</tspan></text>
  <text
     x="300"
     text-anchor="middle"
     class="highcharts-subtitle"
     style="color:#000000;font-size:10px;font-family:'arial', sans-serif;fill:#000000;width:536px;"
     y="34"
     id="text236"><tspan
       id="tspan234">https://marhaenia.github.io/sensus/</tspan></text>
  <g
     class="highcharts-data-labels highcharts-series-0"
     transform="translate(10,49) scale(1 1)"
     opacity="1"
     id="g262">
    <path
       fill="none"
       d="M 448.3526068710163 221.7026866942188 C 443.3526068710163 221.7026866942188 423.67177320233776 217.21319017131975 414.567194222612 211.04013245233355 L 405.4626152428862 204.86707473334735"
       stroke="#50B432"
       stroke-width="1"
       id="path238" />
    <path
       fill="none"
       d="M 115.64242510656123 156.44707321202822 C 120.64242510656123 156.44707321202822 128.7368536630435 156.01396194334484 139.72072121540586 155.41843394890526 L 150.70458876776823 154.82290595446568"
       stroke="#ED561B"
       stroke-width="1"
       id="path240" />
    <path
       fill="none"
       d="M 149.9433951264432 47.07947725173457 C 154.9433951264432 47.07947725173457 192.264364246207 53.448221777379715 198.9212806133384 62.20524550014181 L 205.5781969804698 70.9622692229039"
       stroke="#DDDF00"
       stroke-width="1"
       id="path242" />
    <g
       style="cursor:pointer;"
       transform="translate(453,212)"
       id="g248">
      <text
         x="5"
         style="font-size:10px;font-weight:bold;font-family:'arial', sans-serif;color:#000;text-shadow:none;fill:#000;text-rendering:geometricprecision;"
         y="15"
         id="text246"><tspan
           id="tspan244">Jawa: 20  - 69.0%</tspan></text>
    </g>
    <g
       style="cursor:pointer;"
       transform="translate(19,146)"
       id="g254">
      <text
         x="5"
         style="font-size:10px;font-weight:bold;font-family:'arial', sans-serif;color:#000;text-shadow:none;fill:#000;text-rendering:geometricprecision;"
         y="15"
         id="text252"><tspan
           id="tspan250">Sunda: 3  - 10.3%</tspan></text>
    </g>
    <g
       style="cursor:pointer;"
       transform="translate(38,37)"
       id="g260">
      <text
         x="5"
         style="font-size:10px;font-weight:bold;font-family:'arial', sans-serif;color:#000;text-shadow:none;fill:#000;text-rendering:geometricprecision;"
         y="15"
         id="text258"><tspan
           id="tspan256">Tionghoa: 6  - 20.7%</tspan></text>
    </g>
  </g>
  <g
     class="highcharts-legend"
     transform="translate(181,360)"
     id="g286">
    <g
       id="g284">
      <g
         id="g282">
        <g
           class="highcharts-legend-item"
           transform="translate(8,3)"
           id="g268">
          <text
             x="21"
             style="color:#333;font-size:9pt;font-weight:normal;cursor:pointer;font-family:'lucida grande','lucida sans unicode',arial,helvetica,sans-serif;text-transform:none;fill:#333;"
             text-anchor="start"
             y="15"
             id="text264">Jawa</text>
          <rect
             x="0"
             y="4"
             width="16"
             height="12"
             fill="#50B432"
             id="rect266" />
        </g>
        <g
           class="highcharts-legend-item"
           transform="translate(79.62500190734863,3)"
           id="g274">
          <text
             x="21"
             y="15"
             style="color:#333;font-size:9pt;font-weight:normal;cursor:pointer;font-family:'lucida grande','lucida sans unicode',arial,helvetica,sans-serif;text-transform:none;fill:#333;"
             text-anchor="start"
             id="text270">Sunda</text>
          <rect
             x="0"
             y="4"
             width="16"
             height="12"
             fill="#ED561B"
             id="rect272" />
        </g>
        <g
           class="highcharts-legend-item"
           transform="translate(157.05833625793457,3)"
           id="g280">
          <text
             x="21"
             y="15"
             style="color:#333;font-size:9pt;font-weight:normal;cursor:pointer;font-family:'lucida grande','lucida sans unicode',arial,helvetica,sans-serif;text-transform:none;fill:#333;"
             text-anchor="start"
             id="text276">Tionghoa</text>
          <rect
             x="0"
             y="4"
             width="16"
             height="12"
             fill="#DDDF00"
             id="rect278" />
        </g>
      </g>
    </g>
  </g>
  <g
     class="highcharts-tooltip"
     display="none"
     style="cursor:default;padding:0;pointer-events:none;white-space:nowrap;"
     transform="translate(0,0)"
     id="g298">
    <path
       fill="none"
       d="M 3.5 0.5 L 13.5 0.5 C 16.5 0.5 16.5 0.5 16.5 3.5 L 16.5 13.5 C 16.5 16.5 16.5 16.5 13.5 16.5 L 3.5 16.5 C 0.5 16.5 0.5 16.5 0.5 13.5 L 0.5 3.5 C 0.5 0.5 0.5 0.5 3.5 0.5"
       stroke="black"
       stroke-opacity="0.049999999999999996"
       stroke-width="5"
       transform="translate(1, 1)"
       id="path288" />
    <path
       fill="none"
       d="M 3.5 0.5 L 13.5 0.5 C 16.5 0.5 16.5 0.5 16.5 3.5 L 16.5 13.5 C 16.5 16.5 16.5 16.5 13.5 16.5 L 3.5 16.5 C 0.5 16.5 0.5 16.5 0.5 13.5 L 0.5 3.5 C 0.5 0.5 0.5 0.5 3.5 0.5"
       stroke="black"
       stroke-opacity="0.09999999999999999"
       stroke-width="3"
       transform="translate(1, 1)"
       id="path290" />
    <path
       fill="none"
       d="M 3.5 0.5 L 13.5 0.5 C 16.5 0.5 16.5 0.5 16.5 3.5 L 16.5 13.5 C 16.5 16.5 16.5 16.5 13.5 16.5 L 3.5 16.5 C 0.5 16.5 0.5 16.5 0.5 13.5 L 0.5 3.5 C 0.5 0.5 0.5 0.5 3.5 0.5"
       stroke="black"
       stroke-opacity="0.15"
       stroke-width="1"
       transform="translate(1, 1)"
       id="path292" />
    <path
       fill="rgb(249, 249, 249)"
       fill-opacity=" .85"
       d="M 3.5 0.5 L 13.5 0.5 C 16.5 0.5 16.5 0.5 16.5 3.5 L 16.5 13.5 C 16.5 16.5 16.5 16.5 13.5 16.5 L 3.5 16.5 C 0.5 16.5 0.5 16.5 0.5 13.5 L 0.5 3.5 C 0.5 0.5 0.5 0.5 3.5 0.5"
       id="path294" />
    <text
       x="8"
       style="font-size:12px;color:#000000;fill:#000000;"
       y="20"
       id="text296" />
  </g>
</svg>
